<svg xmlns="http://www.w3.org/2000/svg" width="1200" height="300" viewBox="0 0 1200 300">
  <defs>
    <linearGradient id="bgGrad" x1="0%" y1="0%" x2="100%" y2="100%">
      <stop offset="0%" stop-color="#0D1117"/>
      <stop offset="100%" stop-color="#131B2B"/>
    </linearGradient>
    <linearGradient id="textGrad" x1="0%" y1="0%" x2="100%" y2="0%">
      <stop offset="0%" stop-color="#FFFFFF"/>
      <stop offset="100%" stop-color="#2BD9FE"/>
    </linearGradient>
  </defs>
  <rect width="1200" height="300" fill="url(#bgGrad)"/>
  <line x1="191.8" y1="26.5" x2="267.7" y2="42.6" stroke="#2BD9FE" stroke-width="1" stroke-opacity="0.11"/><line x1="191.8" y1="26.5" x2="126.6" y2="27.7" stroke="#2BD9FE" stroke-width="1" stroke-opacity="0.14"/><line x1="191.8" y1="26.5" x2="242.8" y2="21.7" stroke="#2BD9FE" stroke-width="1" stroke-opacity="0.17"/><line x1="191.8" y1="26.5" x2="211.4" y2="31.9" stroke="#2BD9FE" stroke-width="1" stroke-opacity="0.25"/><line x1="82.5" y1="78.0" x2="126.6" y2="27.7" stroke="#2BD9FE" stroke-width="1" stroke-opacity="0.13"/><line x1="82.5" y1="78.0" x2="65.6" y2="151.4" stroke="#2BD9FE" stroke-width="1" stroke-opacity="0.11"/><line x1="82.5" y1="78.0" x2="8.0" y2="71.7" stroke="#2BD9FE" stroke-width="1" stroke-opacity="0.11"/><line x1="82.5" y1="78.0" x2="102.1" y2="60.4" stroke="#2BD9FE" stroke-width="1" stroke-opacity="0.23"/><line x1="82.5" y1="78.0" x2="27.8" y2="45.1" stroke="#2BD9FE" stroke-width="1" stroke-opacity="0.14"/><line x1="82.5" y1="78.0" x2="68.4" y2="95.2" stroke="#2BD9FE" stroke-width="1" stroke-opacity="0.24"/><line x1="82.5" y1="78.0" x2="23.9" y2="80.5" stroke="#2BD9FE" stroke-width="1" stroke-opacity="0.15"/><line x1="82.5" y1="78.0" x2="30.3" y2="92.3" stroke="#2BD9FE" stroke-width="1" stroke-opacity="0.16"/><line x1="82.5" y1="78.0" x2="111.1" y2="74.5" stroke="#2BD9FE" stroke-width="1" stroke-opacity="0.23"/><line x1="82.5" y1="78.0" x2="49.0" y2="118.7" stroke="#2BD9FE" stroke-width="1" stroke-opacity="0.17"/><line x1="220.9" y1="195.9" x2="195.0" y2="161.7" stroke="#2BD9FE" stroke-width="1" stroke-opacity="0.19"/><line x1="220.9" y1="195.9" x2="241.7" y2="201.5" stroke="#2BD9FE" stroke-width="1" stroke-opacity="0.25"/><line x1="220.9" y1="195.9" x2="254.2" y2="177.0" stroke="#2BD9FE" stroke-width="1" stroke-opacity="0.20"/><line x1="220.9" y1="195.9" x2="242.1" y2="209.7" stroke="#2BD9FE" stroke-width="1" stroke-opacity="0.24"/><line x1="220.9" y1="195.9" x2="248.8" y2="180.8" stroke="#2BD9FE" stroke-width="1" stroke-opacity="0.22"/><line x1="220.9" y1="195.9" x2="258.5" y2="170.1" stroke="#2BD9FE" stroke-width="1" stroke-opacity="0.19"/><line x1="220.9" y1="195.9" x2="194.4" y2="178.4" stroke="#2BD9FE" stroke-width="1" stroke-opacity="0.22"/><line x1="267.7" y1="42.6" x2="242.8" y2="21.7" stroke="#2BD9FE" stroke-width="1" stroke-opacity="0.22"/><line x1="267.7" y1="42.6" x2="287.2" y2="107.5" stroke="#2BD9FE" stroke-width="1" stroke-opacity="0.13"/><line x1="267.7" y1="42.6" x2="211.4" y2="31.9" stroke="#2BD9FE" stroke-width="1" stroke-opacity="0.16"/><line x1="126.6" y1="27.7" x2="102.1" y2="60.4" stroke="#2BD9FE" stroke-width="1" stroke-opacity="0.20"/><line x1="126.6" y1="27.7" x2="211.4" y2="31.9" stroke="#2BD9FE" stroke-width="1" stroke-opacity="0.09"/><line x1="126.6" y1="27.7" x2="111.1" y2="74.5" stroke="#2BD9FE" stroke-width="1" stroke-opacity="0.18"/><line x1="65.6" y1="151.4" x2="66.1" y2="173.2" stroke="#2BD9FE" stroke-width="1" stroke-opacity="0.25"/><line x1="65.6" y1="151.4" x2="113.6" y2="163.5" stroke="#2BD9FE" stroke-width="1" stroke-opacity="0.18"/><line x1="65.6" y1="151.4" x2="68.4" y2="95.2" stroke="#2BD9FE" stroke-width="1" stroke-opacity="0.16"/><line x1="65.6" y1="151.4" x2="23.9" y2="80.5" stroke="#2BD9FE" stroke-width="1" stroke-opacity="0.09"/><line x1="65.6" y1="151.4" x2="30.3" y2="92.3" stroke="#2BD9FE" stroke-width="1" stroke-opacity="0.13"/><line x1="65.6" y1="151.4" x2="51.3" y2="209.6" stroke="#2BD9FE" stroke-width="1" stroke-opacity="0.15"/><line x1="65.6" y1="151.4" x2="49.0" y2="118.7" stroke="#2BD9FE" stroke-width="1" stroke-opacity="0.21"/><line x1="8.0" y1="71.7" x2="27.8" y2="45.1" stroke="#2BD9FE" stroke-width="1" stroke-opacity="0.22"/><line x1="8.0" y1="71.7" x2="68.4" y2="95.2" stroke="#2BD9FE" stroke-width="1" stroke-opacity="0.14"/><line x1="8.0" y1="71.7" x2="23.9" y2="80.5" stroke="#2BD9FE" stroke-width="1" stroke-opacity="0.25"/><line x1="8.0" y1="71.7" x2="30.3" y2="92.3" stroke="#2BD9FE" stroke-width="1" stroke-opacity="0.22"/><line x1="8.0" y1="71.7" x2="49.0" y2="118.7" stroke="#2BD9FE" stroke-width="1" stroke-opacity="0.14"/><line x1="195.0" y1="161.7" x2="241.7" y2="201.5" stroke="#2BD9FE" stroke-width="1" stroke-opacity="0.15"/><line x1="195.0" y1="161.7" x2="254.2" y2="177.0" stroke="#2BD9FE" stroke-width="1" stroke-opacity="0.15"/><line x1="195.0" y1="161.7" x2="242.1" y2="209.7" stroke="#2BD9FE" stroke-width="1" stroke-opacity="0.13"/><line x1="195.0" y1="161.7" x2="113.6" y2="163.5" stroke="#2BD9FE" stroke-width="1" stroke-opacity="0.10"/><line x1="195.0" y1="161.7" x2="248.8" y2="180.8" stroke="#2BD9FE" stroke-width="1" stroke-opacity="0.16"/><line x1="195.0" y1="161.7" x2="258.5" y2="170.1" stroke="#2BD9FE" stroke-width="1" stroke-opacity="0.14"/><line x1="195.0" y1="161.7" x2="190.7" y2="114.9" stroke="#2BD9FE" stroke-width="1" stroke-opacity="0.18"/><line x1="195.0" y1="161.7" x2="194.4" y2="178.4" stroke="#2BD9FE" stroke-width="1" stroke-opacity="0.26"/><line x1="66.1" y1="173.2" x2="113.6" y2="163.5" stroke="#2BD9FE" stroke-width="1" stroke-opacity="0.18"/><line x1="66.1" y1="173.2" x2="68.4" y2="95.2" stroke="#2BD9FE" stroke-width="1" stroke-opacity="0.10"/><line x1="66.1" y1="173.2" x2="51.3" y2="209.6" stroke="#2BD9FE" stroke-width="1" stroke-opacity="0.20"/><line x1="66.1" y1="173.2" x2="49.0" y2="118.7" stroke="#2BD9FE" stroke-width="1" stroke-opacity="0.16"/><line x1="242.8" y1="21.7" x2="211.4" y2="31.9" stroke="#2BD9FE" stroke-width="1" stroke-opacity="0.22"/><line x1="241.7" y1="201.5" x2="254.2" y2="177.0" stroke="#2BD9FE" stroke-width="1" stroke-opacity="0.23"/><line x1="241.7" y1="201.5" x2="242.1" y2="209.7" stroke="#2BD9FE" stroke-width="1" stroke-opacity="0.28"/><line x1="241.7" y1="201.5" x2="248.8" y2="180.8" stroke="#2BD9FE" stroke-width="1" stroke-opacity="0.25"/><line x1="241.7" y1="201.5" x2="258.5" y2="170.1" stroke="#2BD9FE" stroke-width="1" stroke-opacity="0.21"/><line x1="241.7" y1="201.5" x2="194.4" y2="178.4" stroke="#2BD9FE" stroke-width="1" stroke-opacity="0.17"/><line x1="102.1" y1="60.4" x2="27.8" y2="45.1" stroke="#2BD9FE" stroke-width="1" stroke-opacity="0.11"/><line x1="102.1" y1="60.4" x2="68.4" y2="95.2" stroke="#2BD9FE" stroke-width="1" stroke-opacity="0.18"/><line x1="102.1" y1="60.4" x2="23.9" y2="80.5" stroke="#2BD9FE" stroke-width="1" stroke-opacity="0.10"/><line x1="102.1" y1="60.4" x2="30.3" y2="92.3" stroke="#2BD9FE" stroke-width="1" stroke-opacity="0.10"/><line x1="102.1" y1="60.4" x2="111.1" y2="74.5" stroke="#2BD9FE" stroke-width="1" stroke-opacity="0.26"/><line x1="102.1" y1="60.4" x2="49.0" y2="118.7" stroke="#2BD9FE" stroke-width="1" stroke-opacity="0.10"/><line x1="287.2" y1="107.5" x2="254.2" y2="177.0" stroke="#2BD9FE" stroke-width="1" stroke-opacity="0.11"/><line x1="287.2" y1="107.5" x2="248.8" y2="180.8" stroke="#2BD9FE" stroke-width="1" stroke-opacity="0.09"/><line x1="287.2" y1="107.5" x2="258.5" y2="170.1" stroke="#2BD9FE" stroke-width="1" stroke-opacity="0.13"/><line x1="27.8" y1="45.1" x2="68.4" y2="95.2" stroke="#2BD9FE" stroke-width="1" stroke-opacity="0.14"/><line x1="27.8" y1="45.1" x2="23.9" y2="80.5" stroke="#2BD9FE" stroke-width="1" stroke-opacity="0.21"/><line x1="27.8" y1="45.1" x2="30.3" y2="92.3" stroke="#2BD9FE" stroke-width="1" stroke-opacity="0.18"/><line x1="27.8" y1="45.1" x2="49.0" y2="118.7" stroke="#2BD9FE" stroke-width="1" stroke-opacity="0.11"/><line x1="254.2" y1="177.0" x2="242.1" y2="209.7" stroke="#2BD9FE" stroke-width="1" stroke-opacity="0.21"/><line x1="254.2" y1="177.0" x2="248.8" y2="180.8" stroke="#2BD9FE" stroke-width="1" stroke-opacity="0.28"/><line x1="254.2" y1="177.0" x2="258.5" y2="170.1" stroke="#2BD9FE" stroke-width="1" stroke-opacity="0.28"/><line x1="254.2" y1="177.0" x2="194.4" y2="178.4" stroke="#2BD9FE" stroke-width="1" stroke-opacity="0.15"/><line x1="242.1" y1="209.7" x2="248.8" y2="180.8" stroke="#2BD9FE" stroke-width="1" stroke-opacity="0.23"/><line x1="242.1" y1="209.7" x2="258.5" y2="170.1" stroke="#2BD9FE" stroke-width="1" stroke-opacity="0.19"/><line x1="242.1" y1="209.7" x2="194.4" y2="178.4" stroke="#2BD9FE" stroke-width="1" stroke-opacity="0.16"/><line x1="160.9" y1="273.0" x2="80.1" y2="263.5" stroke="#2BD9FE" stroke-width="1" stroke-opacity="0.10"/><line x1="113.6" y1="163.5" x2="68.4" y2="95.2" stroke="#2BD9FE" stroke-width="1" stroke-opacity="0.10"/><line x1="113.6" y1="163.5" x2="194.4" y2="178.4" stroke="#2BD9FE" stroke-width="1" stroke-opacity="0.09"/><line x1="113.6" y1="163.5" x2="51.3" y2="209.6" stroke="#2BD9FE" stroke-width="1" stroke-opacity="0.11"/><line x1="113.6" y1="163.5" x2="49.0" y2="118.7" stroke="#2BD9FE" stroke-width="1" stroke-opacity="0.10"/><line x1="248.8" y1="180.8" x2="258.5" y2="170.1" stroke="#2BD9FE" stroke-width="1" stroke-opacity="0.26"/><line x1="248.8" y1="180.8" x2="194.4" y2="178.4" stroke="#2BD9FE" stroke-width="1" stroke-opacity="0.16"/><line x1="258.5" y1="170.1" x2="194.4" y2="178.4" stroke="#2BD9FE" stroke-width="1" stroke-opacity="0.14"/><line x1="68.4" y1="95.2" x2="23.9" y2="80.5" stroke="#2BD9FE" stroke-width="1" stroke-opacity="0.18"/><line x1="68.4" y1="95.2" x2="30.3" y2="92.3" stroke="#2BD9FE" stroke-width="1" stroke-opacity="0.20"/><line x1="68.4" y1="95.2" x2="111.1" y2="74.5" stroke="#2BD9FE" stroke-width="1" stroke-opacity="0.18"/><line x1="68.4" y1="95.2" x2="49.0" y2="118.7" stroke="#2BD9FE" stroke-width="1" stroke-opacity="0.22"/><line x1="23.9" y1="80.5" x2="30.3" y2="92.3" stroke="#2BD9FE" stroke-width="1" stroke-opacity="0.27"/><line x1="23.9" y1="80.5" x2="49.0" y2="118.7" stroke="#2BD9FE" stroke-width="1" stroke-opacity="0.19"/><line x1="30.3" y1="92.3" x2="111.1" y2="74.5" stroke="#2BD9FE" stroke-width="1" stroke-opacity="0.09"/><line x1="30.3" y1="92.3" x2="49.0" y2="118.7" stroke="#2BD9FE" stroke-width="1" stroke-opacity="0.22"/><line x1="190.7" y1="114.9" x2="194.4" y2="178.4" stroke="#2BD9FE" stroke-width="1" stroke-opacity="0.14"/><line x1="111.1" y1="74.5" x2="49.0" y2="118.7" stroke="#2BD9FE" stroke-width="1" stroke-opacity="0.11"/><line x1="80.1" y1="263.5" x2="51.3" y2="209.6" stroke="#2BD9FE" stroke-width="1" stroke-opacity="0.15"/><line x1="1196.9" y1="186.4" x2="1152.9" y2="221.8" stroke="#2BD9FE" stroke-width="1" stroke-opacity="0.16"/><line x1="1196.9" y1="186.4" x2="1174.4" y2="139.3" stroke="#2BD9FE" stroke-width="1" stroke-opacity="0.17"/><line x1="1196.9" y1="186.4" x2="1199.3" y2="152.5" stroke="#2BD9FE" stroke-width="1" stroke-opacity="0.21"/><line x1="1196.9" y1="186.4" x2="1137.6" y2="129.8" stroke="#2BD9FE" stroke-width="1" stroke-opacity="0.10"/><line x1="1196.9" y1="186.4" x2="1198.8" y2="157.6" stroke="#2BD9FE" stroke-width="1" stroke-opacity="0.23"/><line x1="1196.9" y1="186.4" x2="1191.3" y2="243.8" stroke="#2BD9FE" stroke-width="1" stroke-opacity="0.16"/><line x1="1196.9" y1="186.4" x2="1173.8" y2="246.3" stroke="#2BD9FE" stroke-width="1" stroke-opacity="0.14"/><line x1="1067.1" y1="198.0" x2="1096.6" y2="122.9" stroke="#2BD9FE" stroke-width="1" stroke-opacity="0.10"/><line x1="1067.1" y1="198.0" x2="1075.4" y2="253.4" stroke="#2BD9FE" stroke-width="1" stroke-opacity="0.16"/><line x1="1067.1" y1="198.0" x2="1104.5" y2="159.6" stroke="#2BD9FE" stroke-width="1" stroke-opacity="0.17"/><line x1="1067.1" y1="198.0" x2="1036.1" y2="268.0" stroke="#2BD9FE" stroke-width="1" stroke-opacity="0.11"/><line x1="1067.1" y1="198.0" x2="989.5" y2="186.1" stroke="#2BD9FE" stroke-width="1" stroke-opacity="0.10"/><line x1="1152.9" y1="221.8" x2="1075.4" y2="253.4" stroke="#2BD9FE" stroke-width="1" stroke-opacity="0.09"/><line x1="1152.9" y1="221.8" x2="1199.3" y2="152.5" stroke="#2BD9FE" stroke-width="1" stroke-opacity="0.09"/><line x1="1152.9" y1="221.8" x2="1198.8" y2="157.6" stroke="#2BD9FE" stroke-width="1" stroke-opacity="0.10"/><line x1="1152.9" y1="221.8" x2="1191.3" y2="243.8" stroke="#2BD9FE" stroke-width="1" stroke-opacity="0.19"/><line x1="1152.9" y1="221.8" x2="1104.5" y2="159.6" stroke="#2BD9FE" stroke-width="1" stroke-opacity="0.10"/><line x1="1152.9" y1="221.8" x2="1173.8" y2="246.3" stroke="#2BD9FE" stroke-width="1" stroke-opacity="0.22"/><line x1="968.7" y1="28.3" x2="994.6" y2="89.6" stroke="#2BD9FE" stroke-width="1" stroke-opacity="0.13"/><line x1="968.7" y1="28.3" x2="979.5" y2="84.1" stroke="#2BD9FE" stroke-width="1" stroke-opacity="0.16"/><line x1="968.7" y1="28.3" x2="1019.8" y2="77.0" stroke="#2BD9FE" stroke-width="1" stroke-opacity="0.12"/><line x1="968.7" y1="28.3" x2="927.3" y2="32.3" stroke="#2BD9FE" stroke-width="1" stroke-opacity="0.20"/><line x1="994.6" y1="89.6" x2="979.5" y2="84.1" stroke="#2BD9FE" stroke-width="1" stroke-opacity="0.26"/><line x1="994.6" y1="89.6" x2="1068.4" y2="88.3" stroke="#2BD9FE" stroke-width="1" stroke-opacity="0.12"/><line x1="994.6" y1="89.6" x2="1019.8" y2="77.0" stroke="#2BD9FE" stroke-width="1" stroke-opacity="0.23"/><line x1="994.6" y1="89.6" x2="919.1" y2="119.2" stroke="#2BD9FE" stroke-width="1" stroke-opacity="0.10"/><line x1="994.6" y1="89.6" x2="933.5" y2="133.0" stroke="#2BD9FE" stroke-width="1" stroke-opacity="0.11"/><line x1="994.6" y1="89.6" x2="1050.2" y2="66.4" stroke="#2BD9FE" stroke-width="1" stroke-opacity="0.15"/><line x1="963.3" y1="265.2" x2="903.4" y2="207.4" stroke="#2BD9FE" stroke-width="1" stroke-opacity="0.09"/><line x1="963.3" y1="265.2" x2="980.0" y2="186.7" stroke="#2BD9FE" stroke-width="1" stroke-opacity="0.10"/><line x1="963.3" y1="265.2" x2="1036.1" y2="268.0" stroke="#2BD9FE" stroke-width="1" stroke-opacity="0.12"/><line x1="963.3" y1="265.2" x2="989.5" y2="186.1" stroke="#2BD9FE" stroke-width="1" stroke-opacity="0.09"/><line x1="1162.9" y1="101.8" x2="1096.6" y2="122.9" stroke="#2BD9FE" stroke-width="1" stroke-opacity="0.13"/><line x1="1162.9" y1="101.8" x2="1174.4" y2="139.3" stroke="#2BD9FE" stroke-width="1" stroke-opacity="0.20"/><line x1="1162.9" y1="101.8" x2="1199.3" y2="152.5" stroke="#2BD9FE" stroke-width="1" stroke-opacity="0.14"/><line x1="1162.9" y1="101.8" x2="1137.6" y2="129.8" stroke="#2BD9FE" stroke-width="1" stroke-opacity="0.21"/><line x1="1162.9" y1="101.8" x2="1198.8" y2="157.6" stroke="#2BD9FE" stroke-width="1" stroke-opacity="0.13"/><line x1="1162.9" y1="101.8" x2="1104.5" y2="159.6" stroke="#2BD9FE" stroke-width="1" stroke-opacity="0.09"/><line x1="1162.9" y1="101.8" x2="1162.8" y2="88.5" stroke="#2BD9FE" stroke-width="1" stroke-opacity="0.27"/><line x1="1096.6" y1="122.9" x2="1174.4" y2="139.3" stroke="#2BD9FE" stroke-width="1" stroke-opacity="0.10"/><line x1="1096.6" y1="122.9" x2="1068.4" y2="88.3" stroke="#2BD9FE" stroke-width="1" stroke-opacity="0.19"/><line x1="1096.6" y1="122.9" x2="1137.6" y2="129.8" stroke="#2BD9FE" stroke-width="1" stroke-opacity="0.20"/><line x1="1096.6" y1="122.9" x2="1104.5" y2="159.6" stroke="#2BD9FE" stroke-width="1" stroke-opacity="0.21"/><line x1="1096.6" y1="122.9" x2="1162.8" y2="88.5" stroke="#2BD9FE" stroke-width="1" stroke-opacity="0.11"/><line x1="1096.6" y1="122.9" x2="1050.2" y2="66.4" stroke="#2BD9FE" stroke-width="1" stroke-opacity="0.12"/><line x1="1096.6" y1="122.9" x2="1082.7" y2="59.7" stroke="#2BD9FE" stroke-width="1" stroke-opacity="0.14"/><line x1="1174.4" y1="139.3" x2="1199.3" y2="152.5" stroke="#2BD9FE" stroke-width="1" stroke-opacity="0.23"/><line x1="1174.4" y1="139.3" x2="1137.6" y2="129.8" stroke="#2BD9FE" stroke-width="1" stroke-opacity="0.21"/><line x1="1174.4" y1="139.3" x2="1198.8" y2="157.6" stroke="#2BD9FE" stroke-width="1" stroke-opacity="0.22"/><line x1="1174.4" y1="139.3" x2="1104.5" y2="159.6" stroke="#2BD9FE" stroke-width="1" stroke-opacity="0.12"/><line x1="1174.4" y1="139.3" x2="1162.8" y2="88.5" stroke="#2BD9FE" stroke-width="1" stroke-opacity="0.17"/><line x1="979.5" y1="84.1" x2="1019.8" y2="77.0" stroke="#2BD9FE" stroke-width="1" stroke-opacity="0.20"/><line x1="979.5" y1="84.1" x2="927.3" y2="32.3" stroke="#2BD9FE" stroke-width="1" stroke-opacity="0.12"/><line x1="979.5" y1="84.1" x2="919.1" y2="119.2" stroke="#2BD9FE" stroke-width="1" stroke-opacity="0.13"/><line x1="979.5" y1="84.1" x2="933.5" y2="133.0" stroke="#2BD9FE" stroke-width="1" stroke-opacity="0.13"/><line x1="979.5" y1="84.1" x2="1050.2" y2="66.4" stroke="#2BD9FE" stroke-width="1" stroke-opacity="0.12"/><line x1="1068.4" y1="88.3" x2="1019.8" y2="77.0" stroke="#2BD9FE" stroke-width="1" stroke-opacity="0.18"/><line x1="1068.4" y1="88.3" x2="1137.6" y2="129.8" stroke="#2BD9FE" stroke-width="1" stroke-opacity="0.10"/><line x1="1068.4" y1="88.3" x2="1104.5" y2="159.6" stroke="#2BD9FE" stroke-width="1" stroke-opacity="0.10"/><line x1="1068.4" y1="88.3" x2="1050.2" y2="66.4" stroke="#2BD9FE" stroke-width="1" stroke-opacity="0.23"/><line x1="1068.4" y1="88.3" x2="1082.7" y2="59.7" stroke="#2BD9FE" stroke-width="1" stroke-opacity="0.22"/><line x1="1075.4" y1="253.4" x2="1036.1" y2="268.0" stroke="#2BD9FE" stroke-width="1" stroke-opacity="0.20"/><line x1="1019.8" y1="77.0" x2="1050.2" y2="66.4" stroke="#2BD9FE" stroke-width="1" stroke-opacity="0.22"/><line x1="1019.8" y1="77.0" x2="1082.7" y2="59.7" stroke="#2BD9FE" stroke-width="1" stroke-opacity="0.14"/><line x1="1199.3" y1="152.5" x2="1137.6" y2="129.8" stroke="#2BD9FE" stroke-width="1" stroke-opacity="0.14"/><line x1="1199.3" y1="152.5" x2="1198.8" y2="157.6" stroke="#2BD9FE" stroke-width="1" stroke-opacity="0.29"/><line x1="1199.3" y1="152.5" x2="1162.8" y2="88.5" stroke="#2BD9FE" stroke-width="1" stroke-opacity="0.12"/><line x1="932.9" y1="183.1" x2="919.1" y2="119.2" stroke="#2BD9FE" stroke-width="1" stroke-opacity="0.14"/><line x1="932.9" y1="183.1" x2="903.4" y2="207.4" stroke="#2BD9FE" stroke-width="1" stroke-opacity="0.20"/><line x1="932.9" y1="183.1" x2="980.0" y2="186.7" stroke="#2BD9FE" stroke-width="1" stroke-opacity="0.18"/><line x1="932.9" y1="183.1" x2="933.5" y2="133.0" stroke="#2BD9FE" stroke-width="1" stroke-opacity="0.17"/><line x1="932.9" y1="183.1" x2="989.5" y2="186.1" stroke="#2BD9FE" stroke-width="1" stroke-opacity="0.16"/><line x1="1137.6" y1="129.8" x2="1198.8" y2="157.6" stroke="#2BD9FE" stroke-width="1" stroke-opacity="0.13"/><line x1="1137.6" y1="129.8" x2="1104.5" y2="159.6" stroke="#2BD9FE" stroke-width="1" stroke-opacity="0.19"/><line x1="1137.6" y1="129.8" x2="1162.8" y2="88.5" stroke="#2BD9FE" stroke-width="1" stroke-opacity="0.18"/><line x1="919.1" y1="119.2" x2="933.5" y2="133.0" stroke="#2BD9FE" stroke-width="1" stroke-opacity="0.25"/><line x1="1198.8" y1="157.6" x2="1162.8" y2="88.5" stroke="#2BD9FE" stroke-width="1" stroke-opacity="0.11"/><line x1="1191.3" cy="243.8" r="1.7" fill="#2BD9FE" fill-opacity="0.50"/><line x1="903.4" y1="207.4" x2="980.0" y2="186.7" stroke="#2BD9FE" stroke-width="1" stroke-opacity="0.10"/><line x1="903.4" y1="207.4" x2="933.5" y2="133.0" stroke="#2BD9FE" stroke-width="1" stroke-opacity="0.10"/><line x1="980.0" y1="186.7" x2="933.5" y2="133.0" stroke="#2BD9FE" stroke-width="1" stroke-opacity="0.12"/><line x1="980.0" y1="186.7" x2="989.5" y2="186.1" stroke="#2BD9FE" stroke-width="1" stroke-opacity="0.28"/><line x1="933.5" y1="133.0" x2="989.5" y2="186.1" stroke="#2BD9FE" stroke-width="1" stroke-opacity="0.11"/><line x1="1050.2" y1="66.4" x2="1082.7" y2="59.7" stroke="#2BD9FE" stroke-width="1" stroke-opacity="0.22"/>
  <circle cx="191.8" cy="26.5" r="2.8" fill="#2BD9FE" fill-opacity="0.62"/><circle cx="82.5" cy="78.0" r="2.8" fill="#2BD9FE" fill-opacity="0.62"/><circle cx="220.9" cy="195.9" r="1.4" fill="#2BD9FE" fill-opacity="0.51"/><circle cx="267.7" cy="42.6" r="1.4" fill="#2BD9FE" fill-opacity="0.81"/><circle cx="126.6" cy="27.7" r="3.0" fill="#2BD9FE" fill-opacity="0.77"/><circle cx="65.6" cy="151.4" r="2.0" fill="#2BD9FE" fill-opacity="0.38"/><circle cx="8.0" cy="71.7" r="3.0" fill="#2BD9FE" fill-opacity="0.82"/><circle cx="195.0" cy="161.7" r="1.6" fill="#2BD9FE" fill-opacity="0.59"/><circle cx="66.1" cy="173.2" r="1.5" fill="#2BD9FE" fill-opacity="0.73"/><circle cx="242.8" cy="21.7" r="2.8" fill="#2BD9FE" fill-opacity="0.41"/><circle cx="241.7" cy="201.5" r="2.3" fill="#2BD9FE" fill-opacity="0.62"/><circle cx="102.1" cy="60.4" r="1.9" fill="#2BD9FE" fill-opacity="0.79"/><circle cx="287.2" cy="107.5" r="2.2" fill="#2BD9FE" fill-opacity="0.46"/><circle cx="27.8" cy="45.1" r="2.4" fill="#2BD9FE" fill-opacity="0.71"/><circle cx="254.2" cy="177.0" r="1.8" fill="#2BD9FE" fill-opacity="0.51"/><circle cx="242.1" cy="209.7" r="3.2" fill="#2BD9FE" fill-opacity="0.67"/><circle cx="160.9" cy="273.0" r="2.2" fill="#2BD9FE" fill-opacity="0.61"/><circle cx="113.6" cy="163.5" r="1.6" fill="#2BD9FE" fill-opacity="0.46"/><circle cx="248.8" cy="180.8" r="2.0" fill="#2BD9FE" fill-opacity="0.64"/><circle cx="258.5" cy="170.1" r="1.8" fill="#2BD9FE" fill-opacity="0.46"/><circle cx="211.4" cy="31.9" r="1.5" fill="#2BD9FE" fill-opacity="0.67"/><circle cx="68.4" cy="95.2" r="1.8" fill="#2BD9FE" fill-opacity="0.80"/><circle cx="23.9" cy="80.5" r="2.9" fill="#2BD9FE" fill-opacity="0.39"/><circle cx="30.3" cy="92.3" r="1.8" fill="#2BD9FE" fill-opacity="0.68"/><circle cx="190.7" cy="114.9" r="1.8" fill="#2BD9FE" fill-opacity="0.42"/><circle cx="111.1" cy="74.5" r="3.1" fill="#2BD9FE" fill-opacity="0.64"/><circle cx="80.1" cy="263.5" r="2.3" fill="#2BD9FE" fill-opacity="0.74"/><circle cx="194.4" cy="178.4" r="2.9" fill="#2BD9FE" fill-opacity="0.45"/><circle cx="51.3" cy="209.6" r="1.6" fill="#2BD9FE" fill-opacity="0.57"/><circle cx="49.0" cy="118.7" r="2.2" fill="#2BD9FE" fill-opacity="0.58"/><circle cx="1196.9" cy="186.4" r="2.7" fill="#2BD9FE" fill-opacity="0.69"/><circle cx="1067.1" cy="198.0" r="3.2" fill="#2BD9FE" fill-opacity="0.40"/><circle cx="1152.9" cy="221.8" r="2.1" fill="#2BD9FE" fill-opacity="0.52"/><circle cx="968.7" cy="28.3" r="3.0" fill="#2BD9FE" fill-opacity="0.47"/><circle cx="994.6" cy="89.6" r="1.7" fill="#2BD9FE" fill-opacity="0.57"/><circle cx="963.3" cy="265.2" r="2.2" fill="#2BD9FE" fill-opacity="0.49"/><circle cx="1162.9" cy="101.8" r="1.8" fill="#2BD9FE" fill-opacity="0.81"/><circle cx="1096.6" cy="122.9" r="2.2" fill="#2BD9FE" fill-opacity="0.78"/><circle cx="1174.4" cy="139.3" r="2.4" fill="#2BD9FE" fill-opacity="0.38"/><circle cx="979.5" cy="84.1" r="3.2" fill="#2BD9FE" fill-opacity="0.77"/><circle cx="1068.4" cy="88.3" r="3.1" fill="#2BD9FE" fill-opacity="0.81"/><circle cx="1075.4" cy="253.4" r="2.9" fill="#2BD9FE" fill-opacity="0.43"/><circle cx="1019.8" cy="77.0" r="2.3" fill="#2BD9FE" fill-opacity="0.46"/><circle cx="1199.3" cy="152.5" r="2.1" fill="#2BD9FE" fill-opacity="0.38"/><circle cx="927.3" cy="32.3" r="2.1" fill="#2BD9FE" fill-opacity="0.84"/><circle cx="932.9" cy="183.1" r="1.9" fill="#2BD9FE" fill-opacity="0.74"/><circle cx="1137.6" cy="129.8" r="2.2" fill="#2BD9FE" fill-opacity="0.56"/><circle cx="919.1" cy="119.2" r="3.1" fill="#2BD9FE" fill-opacity="0.85"/><circle cx="1198.8" cy="157.6" r="2.4" fill="#2BD9FE" fill-opacity="0.71"/><circle cx="1191.3" cy="243.8" r="1.7" fill="#2BD9FE" fill-opacity="0.50"/><circle cx="903.4" cy="207.4" r="3.1" fill="#2BD9FE" fill-opacity="0.64"/><circle cx="1104.5" cy="159.6" r="2.4" fill="#2BD9FE" fill-opacity="0.72"/><circle cx="980.0" cy="186.7" r="1.5" fill="#2BD9FE" fill-opacity="0.64"/><circle cx="933.5" cy="133.0" r="2.3" fill="#2BD9FE" fill-opacity="0.78"/><circle cx="1036.1" cy="268.0" r="1.7" fill="#2BD9FE" fill-opacity="0.83"/><circle cx="1162.8" cy="88.5" r="1.5" fill="#2BD9FE" fill-opacity="0.44"/><circle cx="1050.2" cy="66.4" r="2.5" fill="#2BD9FE" fill-opacity="0.69"/><circle cx="1173.8" cy="246.3" r="1.8" fill="#2BD9FE" fill-opacity="0.41"/><circle cx="989.5" cy="186.1" r="3.0" fill="#2BD9FE" fill-opacity="0.47"/><circle cx="1082.7" cy="59.7" r="2.5" fill="#2BD9FE" fill-opacity="0.66"/>
  <text x="600" y="128" font-family="Arial, Helvetica, sans-serif" font-size="56" font-weight="700" fill="url(#textGrad)" text-anchor="middle" letter-spacing="2">VICTOR FUENTES</text>
  <line x1="500" y1="152" x2="700" y2="152" stroke="#2BD9FE" stroke-width="2" stroke-opacity="0.8"/>
  <text x="600" y="188" font-family="Consolas, Monaco, monospace" font-size="20" fill="#2BD9FE" text-anchor="middle">Automatizacion &#183; Diseno Web &#183; SaaS a Medida</text>
  <text x="600" y="222" font-family="Arial, Helvetica, sans-serif" font-size="13" fill="#8B96A5" text-anchor="middle" letter-spacing="3">GIOVIC IA SOLUTIONS</text>
</svg>
