<svg xmlns="http://www.w3.org/2000/svg" width="1200" height="250" viewBox="0 0 1200 250"><rect width="1200" height="250" fill="#0D1117"/><rect x="30.0" y="15" width="360" height="220" rx="12" fill="#121A28" stroke="#1E2A3D" stroke-width="1.5"/><rect x="30.0" y="15" width="360" height="4" rx="2" fill="#2BD9FE"/><line x1="182.0" y1="56" x2="232.0" y2="48" stroke="#2BD9FE" stroke-width="1.4" stroke-opacity="0.65"/><line x1="232.0" y1="48" x2="218.0" y2="90" stroke="#2BD9FE" stroke-width="1.4" stroke-opacity="0.65"/><line x1="182.0" y1="56" x2="186.0" y2="86" stroke="#2BD9FE" stroke-width="1.4" stroke-opacity="0.65"/><line x1="218.0" y1="90" x2="186.0" y2="86" stroke="#2BD9FE" stroke-width="1.4" stroke-opacity="0.65"/><line x1="232.0" y1="48" x2="236.0" y2="76" stroke="#2BD9FE" stroke-width="1.4" stroke-opacity="0.65"/><line x1="218.0" y1="90" x2="236.0" y2="76" stroke="#2BD9FE" stroke-width="1.4" stroke-opacity="0.65"/><circle cx="182.0" cy="56" r="4.5" fill="#2BD9FE"/><circle cx="232.0" cy="48" r="4.5" fill="#2BD9FE"/><circle cx="218.0" cy="90" r="4.5" fill="#2BD9FE"/><circle cx="186.0" cy="86" r="4.5" fill="#2BD9FE"/><circle cx="236.0" cy="76" r="4.5" fill="#2BD9FE"/><text x="210.0" y="133" font-family="Arial, Helvetica, sans-serif" font-size="19" font-weight="700" fill="#F2F5F8" text-anchor="middle">Automatizacion con n8n</text><text x="210.0" y="163" font-family="Arial, Helvetica, sans-serif" font-size="13.5" fill="#8B96A5" text-anchor="middle">Conecto tus herramientas en</text><text x="210.0" y="183" font-family="Arial, Helvetica, sans-serif" font-size="13.5" fill="#8B96A5" text-anchor="middle">flujos que trabajan solos, 24/7.</text><rect x="420.0" y="15" width="360" height="220" rx="12" fill="#121A28" stroke="#1E2A3D" stroke-width="1.5"/><rect x="420.0" y="15" width="360" height="4" rx="2" fill="#2BD9FE"/><rect x="570.0" y="46" width="60" height="48" rx="6" fill="none" stroke="#2BD9FE" stroke-width="2.2"/><line x1="570.0" y1="60" x2="630.0" y2="60" stroke="#2BD9FE" stroke-width="2"/><circle cx="578.0" cy="53" r="2" fill="#2BD9FE" fill-opacity="0.8"/><circle cx="586.0" cy="53" r="2" fill="#2BD9FE" fill-opacity="0.8"/><circle cx="594.0" cy="53" r="2" fill="#2BD9FE" fill-opacity="0.8"/><text x="600.0" y="133" font-family="Arial, Helvetica, sans-serif" font-size="19" font-weight="700" fill="#F2F5F8" text-anchor="middle">Diseno de Paginas Web</text><text x="600.0" y="163" font-family="Arial, Helvetica, sans-serif" font-size="13.5" fill="#8B96A5" text-anchor="middle">Sitios rapidos y modernos</text><text x="600.0" y="183" font-family="Arial, Helvetica, sans-serif" font-size="13.5" fill="#8B96A5" text-anchor="middle">pensados para convertir.</text><rect x="810.0" y="15" width="360" height="220" rx="12" fill="#121A28" stroke="#1E2A3D" stroke-width="1.5"/><rect x="810.0" y="15" width="360" height="4" rx="2" fill="#2BD9FE"/><polygon points="964.0,56 990.0,45 1016.0,56 990.0,67" fill="none" stroke="#2BD9FE" stroke-width="2" stroke-opacity="0.5"/><polygon points="964.0,70 990.0,59 1016.0,70 990.0,81" fill="none" stroke="#2BD9FE" stroke-width="2" stroke-opacity="0.75"/><polygon points="964.0,84 990.0,73 1016.0,84 990.0,95" fill="none" stroke="#2BD9FE" stroke-width="2" stroke-opacity="1.0"/><text x="990.0" y="133" font-family="Arial, Helvetica, sans-serif" font-size="19" font-weight="700" fill="#F2F5F8" text-anchor="middle">SaaS a Medida</text><text x="990.0" y="163" font-family="Arial, Helvetica, sans-serif" font-size="13.5" fill="#8B96A5" text-anchor="middle">Paneles y plataformas propias,</text><text x="990.0" y="183" font-family="Arial, Helvetica, sans-serif" font-size="13.5" fill="#8B96A5" text-anchor="middle">con base de datos incluida.</text></svg>
